<svg xmlns="http://www.w3.org/2000/svg" xmlns:xlink="http://www.w3.org/1999/xlink" viewBox="0,0,256,256" width="48px" height="48px"><g fill="none" fill-rule="nonzero" stroke="none" stroke-width="1" stroke-linecap="butt" stroke-linejoin="miter" stroke-miterlimit="10" stroke-dasharray="" stroke-dashoffset="0" font-family="none" font-weight="none" font-size="none" text-anchor="none" style="mix-blend-mode: normal"><g transform="scale(5.33333,5.33333)"><path d="M44.2,22.7l-9.5,-15.5c-0.4,-0.7 -1.3,-1.2 -2.2,-1.2h-17.1c-0.9,0 -1.7,0.5 -2.2,1.2l-9.4,15.5c-0.5,0.8 -0.5,1.9 0,2.7l9.4,15.4c0.5,0.8 1.3,1.2 2.2,1.2h17.1c0.9,0 1.7,-0.5 2.2,-1.2l9.5,-15.4c0.5,-0.9 0.5,-1.9 0,-2.7z" fill-opacity="0.8902" fill="#0c72b4"></path><path d="M29,15l-2,2l-2,-2l-2,2l-2,-2l-2,4l-4,2l2,2l-2,2l2,2l-2,2l13,13h4.5c0.9,0 1.7,-0.5 2.2,-1.2l7.6,-12.4z" fill-opacity="0.90196" fill="#0a67a4"></path><path d="M22,22h4v4h-4z" fill="#ffffff"></path><path d="M33,21v-2h-3v-1h-1v-3h-2v3h-2v-3h-2v3h-2v-3h-2v3h-1v1h-3v2h3v2h-3v2h3v2h-3v2h3v1h1v3h2v-3h2v3h2v-3h2v3h2v-3h1v-1h3v-2h-3v-2h3v-2h-3v-2zM20,28v-8h8v8z" fill="#ffffff"></path></g></g></svg>