<svg xmlns="http://www.w3.org/2000/svg" xmlns:xlink="http://www.w3.org/1999/xlink" viewBox="0,0,256,256" width="48px" height="48px"><defs><linearGradient x1="15.163" y1="-5.83" x2="35.163" y2="36.382" gradientUnits="userSpaceOnUse" id="color-1"><stop offset="0" stop-color="#ffffff" stop-opacity="0"></stop><stop offset="1" stop-color="#000000"></stop></linearGradient><linearGradient x1="14.019" y1="-5.288" x2="34.019" y2="36.925" gradientUnits="userSpaceOnUse" id="color-2"><stop offset="0" stop-color="#ffffff" stop-opacity="0"></stop><stop offset="1" stop-color="#000000"></stop></linearGradient><linearGradient x1="2.951" y1="-0.044" x2="22.951" y2="42.168" gradientUnits="userSpaceOnUse" id="color-3"><stop offset="0" stop-color="#ffffff" stop-opacity="0"></stop><stop offset="1" stop-color="#000000"></stop></linearGradient></defs><g fill="none" fill-rule="evenodd" stroke="none" stroke-width="1" stroke-linecap="butt" stroke-linejoin="miter" stroke-miterlimit="10" stroke-dasharray="" stroke-dashoffset="0" font-family="none" font-weight="none" font-size="none" text-anchor="none" style="mix-blend-mode: normal"><g transform="scale(5.33333,5.33333)"><path d="M12.187,14.648l9.532,-5.488c1.399,-0.802 3.117,-0.803 4.517,-0.003l9.571,5.493c0.494,0.283 0.909,0.662 1.253,1.094l3.79,-2.182c-0.446,-0.6 -1.01,-1.102 -1.657,-1.475l-12.429,-7.134c-1.731,-0.989 -3.856,-0.987 -5.586,0.004l-12.377,7.128c-0.653,0.381 -1.222,0.892 -1.67,1.501l3.787,2.181c0.347,-0.452 0.778,-0.832 1.269,-1.119M21.719,38.924l-9.531,-5.488c-1.399,-0.807 -2.261,-2.297 -2.264,-3.912v-10.963c0,-0.431 0.07,-0.851 0.189,-1.254l-3.796,-2.188c-0.207,0.579 -0.314,1.189 -0.317,1.804v14.239c0.004,1.996 1.07,3.839 2.8,4.837l12.379,7.128c0.586,0.337 1.231,0.553 1.918,0.658v-4.363c-0.484,-0.088 -0.95,-0.256 -1.378,-0.498" fill-opacity="0.92157" fill="#4adfcb"></path><path d="M24.84,27.882v11.544c0.49,-0.086 0.962,-0.255 1.396,-0.499l9.571,-5.492c1.402,-0.806 2.267,-2.299 2.27,-3.916v-10.954c-0.002,-0.437 -0.07,-0.872 -0.201,-1.289l-10.404,5.991c-2.139,1.509 -2.601,2.939 -2.632,4.615" fill-opacity="0.83137" fill="#0c72b4"></path><path d="M41.671,15.09l-3.795,2.187c0.131,0.417 0.199,0.851 0.201,1.287v10.956c0,1.611 -0.87,3.112 -2.27,3.916l-9.571,5.491c-0.433,0.244 -0.905,0.413 -1.394,0.5v4.36c0.676,-0.097 1.329,-0.32 1.923,-0.657l12.43,-7.133c1.733,-0.997 2.802,-2.842 2.806,-4.842v-14.227c-0.003,-0.627 -0.115,-1.249 -0.33,-1.838" fill-opacity="0.92157" fill="#4adfcb"></path><path d="M23.968,24.253c0.567,-0.922 1.409,-1.718 2.622,-2.479l10.47,-6.03c-0.345,-0.441 -0.77,-0.813 -1.253,-1.095l-9.572,-5.491c-1.399,-0.8 -3.117,-0.799 -4.516,0.002l-9.532,5.488c-0.501,0.288 -0.922,0.677 -1.269,1.12l10.423,6.002c1.218,0.766 2.062,1.561 2.627,2.483" fill-opacity="0.83137" fill="#0c72b4"></path><path d="M20.448,23.255l-10.334,-5.949c-0.12,0.403 -0.19,0.823 -0.19,1.254v10.963c0,1.61 0.867,3.109 2.264,3.912l9.531,5.489c0.433,0.248 0.899,0.407 1.377,0.497v-11.542c-0.03,-1.674 -0.492,-3.103 -2.648,-4.624" fill-opacity="0.83137" fill="#0c72b4"></path><path d="M24.84,27.882v11.544c0.49,-0.086 0.962,-0.255 1.396,-0.499l9.571,-5.492c1.402,-0.806 2.267,-2.299 2.27,-3.916v-10.954c-0.002,-0.437 -0.07,-0.872 -0.201,-1.289l-10.404,5.991c-2.139,1.509 -2.601,2.939 -2.632,4.615" fill="url(#color-1)" opacity="0.3"></path><path d="M23.968,24.253c0.567,-0.922 1.409,-1.718 2.622,-2.479l10.47,-6.03c-0.345,-0.441 -0.77,-0.813 -1.253,-1.095l-9.572,-5.491c-1.399,-0.8 -3.117,-0.799 -4.516,0.002l-9.532,5.488c-0.501,0.288 -0.922,0.677 -1.269,1.12l10.423,6.002c1.218,0.766 2.062,1.561 2.627,2.483" fill="url(#color-2)" opacity="0.3"></path><path d="M20.448,23.255l-10.334,-5.949c-0.12,0.403 -0.19,0.823 -0.19,1.254v10.963c0,1.61 0.867,3.109 2.264,3.912l9.531,5.489c0.433,0.248 0.899,0.407 1.377,0.497v-11.542c-0.03,-1.674 -0.492,-3.103 -2.648,-4.624" fill="url(#color-3)" opacity="0.3"></path><path d="M12.188,33.435c-1.399,-0.807 -2.261,-2.297 -2.264,-3.912v-10.962c0,-0.431 0.07,-0.851 0.189,-1.254l-0.89,-0.513l-0.068,0.226c-0.153,0.518 -0.231,1.036 -0.231,1.54v10.963c0,1.967 1.06,3.798 2.765,4.778l9.534,5.491c0.509,0.291 1.078,0.496 1.689,0.611l0.184,0.035v-1.015c-0.484,-0.088 -0.949,-0.256 -1.377,-0.498z" fill="#ffffff" opacity="0.22"></path><path d="M12.188,33.435c-1.399,-0.807 -2.261,-2.297 -2.264,-3.912v-10.962c0,-0.431 0.07,-0.851 0.189,-1.254l-0.445,-0.257l-0.034,0.112c-0.14,0.47 -0.211,0.94 -0.211,1.397v10.963c0,1.789 0.964,3.454 2.515,4.345l9.532,5.49c0.461,0.263 0.977,0.449 1.534,0.554l0.091,0.017v-0.507c-0.484,-0.088 -0.949,-0.256 -1.377,-0.498z" fill="#ffffff" opacity="0.22"></path><path d="M38.076,18.564v10.956c0,1.611 -0.87,3.112 -2.27,3.916l-9.571,5.491c-0.433,0.244 -0.905,0.413 -1.394,0.5v1.014l0.172,-0.03c0.604,-0.106 1.181,-0.313 1.721,-0.617l9.57,-5.492c1.707,-0.981 2.77,-2.814 2.772,-4.783v-10.958c-0.002,-0.537 -0.086,-1.071 -0.249,-1.586l-0.066,-0.209l-0.887,0.511c0.132,0.416 0.2,0.85 0.202,1.287z" fill="#ffffff" opacity="0.22"></path><path d="M38.076,18.564v10.956c0,1.611 -0.87,3.112 -2.27,3.916l-9.571,5.491c-0.433,0.244 -0.905,0.413 -1.394,0.5v0.506l0.085,-0.015c0.547,-0.096 1.07,-0.283 1.559,-0.558l9.57,-5.492c1.552,-0.892 2.519,-2.559 2.521,-4.35v-10.955c-0.002,-0.487 -0.078,-0.971 -0.226,-1.438l-0.033,-0.105l-0.443,0.255c0.132,0.418 0.2,0.852 0.202,1.289z" fill="#ffffff" opacity="0.22"></path><path d="M37.848,15.128c-0.425,-0.543 -0.942,-0.995 -1.543,-1.346l-9.574,-5.492c-0.833,-0.477 -1.785,-0.729 -2.752,-0.729c-0.969,0 -1.923,0.253 -2.759,0.732l-9.533,5.488c-0.583,0.336 -1.106,0.796 -1.557,1.368l-0.089,0.113l0.875,0.504c0.347,-0.451 0.779,-0.832 1.27,-1.12v0.001l9.532,-5.488c1.399,-0.802 3.117,-0.803 4.517,-0.003l9.571,5.493c0.494,0.283 0.909,0.662 1.253,1.094l0.875,-0.504z" fill="#ffffff" opacity="0.22"></path><path d="M37.454,15.436c-0.386,-0.493 -0.855,-0.903 -1.398,-1.221l-9.572,-5.492c-1.547,-0.884 -3.467,-0.883 -5.014,0.003l-9.532,5.488c-0.527,0.304 -1.003,0.723 -1.413,1.244l-0.044,0.057l0.437,0.252c0.347,-0.451 0.779,-0.832 1.27,-1.12v0.001l9.532,-5.488c1.399,-0.802 3.117,-0.803 4.517,-0.003l9.571,5.493c0.494,0.283 0.909,0.662 1.253,1.094l0.438,-0.252z" fill="#ffffff" opacity="0.22"></path></g></g></svg>