<svg xmlns="http://www.w3.org/2000/svg" xmlns:xlink="http://www.w3.org/1999/xlink" viewBox="0,0,256,256" width="48px" height="48px"><defs><linearGradient x1="14.853" y1="26.465" x2="33.468" y2="45.08" gradientUnits="userSpaceOnUse" id="color-1"><stop offset="0" stop-color="#25c9b3" stop-opacity="0.74118"></stop><stop offset="1" stop-color="#10a490" stop-opacity="0.78824"></stop></linearGradient><linearGradient x1="14.709" y1="26.32" x2="30.625" y2="42.236" gradientUnits="userSpaceOnUse" id="color-2"><stop offset="0" stop-color="#2f96d8" stop-opacity="0.85882"></stop><stop offset="1" stop-color="#0c72b4" stop-opacity="0.85098"></stop></linearGradient><linearGradient x1="18.343" y1="6.343" x2="29.048" y2="17.048" gradientUnits="userSpaceOnUse" id="color-3"><stop offset="0" stop-color="#2f96d8" stop-opacity="0.85882"></stop><stop offset="1" stop-color="#0c72b4" stop-opacity="0.85098"></stop></linearGradient></defs><g fill="none" fill-rule="nonzero" stroke="none" stroke-width="1" stroke-linecap="butt" stroke-linejoin="miter" stroke-miterlimit="10" stroke-dasharray="" stroke-dashoffset="0" font-family="none" font-weight="none" font-size="none" text-anchor="none" style="mix-blend-mode: normal"><g transform="scale(5.33333,5.33333)"><path d="M6.999,41.499c0,-0.635 0,-4.156 0,-5.5c0,-6.624 5.376,-12 12,-12c0.521,0 1.212,0 2.009,0c0.819,0 2.013,2 2.991,2c1.063,0 1.917,-2 3.003,-2c2.521,0 4.876,0 5.997,0c4.416,0 8,3.584 8,8c0,0.691 0,3.311 0,4c0,4.416 -3.584,8 -8,8c-0.793,0 -3.107,0 -5.992,0c-1.628,0 -3.187,-3 -5.008,-3c-2.181,0 -4.629,3 -6.551,3c-3.192,0 -5.623,0 -5.949,0c-1.38,0 -2.5,-1.12 -2.5,-2.5z" fill="url(#color-1)"></path><path d="M12.999,41.499v-9.5c0,-4.416 3.584,-8 8,-8c1.06,0 4.939,0 6,0c4.416,0 8,3.584 8,8c0,0.691 0,3.311 0,4c0,4.416 -3.584,8 -8,8h-11.5c-1.38,0 -2.5,-1.12 -2.5,-2.5z" fill="url(#color-2)"></path><path d="M23.999,3.998c4.416,0 8.001,3.585 8.001,8.001c0,4.416 -3.585,8.001 -8.001,8.001c-4.416,0 -8.001,-3.585 -8.001,-8.001c0,-4.416 3.585,-8.001 8.001,-8.001z" fill="url(#color-3)"></path></g></g></svg>