<svg xmlns="http://www.w3.org/2000/svg" xmlns:xlink="http://www.w3.org/1999/xlink" viewBox="0,0,256,256" width="48px" height="48px"><defs><linearGradient x1="3.204" y1="21.704" x2="25.82" y2="44.32" gradientUnits="userSpaceOnUse" id="color-1"><stop offset="0" stop-color="#0c72b4" stop-opacity="0.67059"></stop><stop offset="0.33" stop-color="#2287c9"></stop><stop offset="0.77" stop-color="#0c72b4" stop-opacity="0.58039"></stop><stop offset="0.953" stop-color="#0c639b" stop-opacity="0.78824"></stop></linearGradient></defs><g fill="none" fill-rule="nonzero" stroke="none" stroke-width="1" stroke-linecap="butt" stroke-linejoin="miter" stroke-miterlimit="10" stroke-dasharray="" stroke-dashoffset="0" font-family="none" font-weight="none" font-size="none" text-anchor="none" style="mix-blend-mode: normal"><g transform="scale(5.33333,5.33333)"><path d="M13,6h25c2.761,0 5,2.239 5,5v26c0,2.761 -2.239,5 -5,5h-25c-2.761,0 -5,-2.239 -5,-5v-26c0,-2.761 2.239,-5 5,-5z" fill-opacity="0.72157" fill="#10a490"></path><path d="M27,29v10c0,1.2 -0.53,2.27 -1.36,3h-17.64v-17h15c2.21,0 4,1.79 4,4z" fill="#000000" opacity="0.05"></path><path d="M26.5,29v10c0,1.28 -0.69,2.39 -1.71,3h-16.79v-16.5h15c1.93,0 3.5,1.57 3.5,3.5z" fill="#000000" opacity="0.07"></path><path d="M8,26h15c1.657,0 3,1.343 3,3v10c0,1.657 -1.343,3 -3,3h-15c-1.657,0 -3,-1.343 -3,-3v-10c0,-1.657 1.343,-3 3,-3z" fill="url(#color-1)"></path></g></g></svg>