<svg width="216" height="199" viewBox="0 0 216 199" fill="none" xmlns="http://www.w3.org/2000/svg">
<rect x="65" y="177.883" width="28" height="21" rx="5" fill="url(#paint0_linear_228561_34)"/>
<path d="M69.77 191.883H70.68V186.713L72.99 191.883H73.63L75.93 186.723V191.883H76.84V184.963H75.87L73.31 190.683L70.75 184.963H69.77V191.883ZM78.0433 189.123C78.0433 190.823 79.1733 191.973 80.6333 191.973C81.6433 191.973 82.3533 191.453 82.6833 190.863V191.883H83.6033V186.403H82.6833V187.403C82.3633 186.833 81.6633 186.313 80.6433 186.313C79.1733 186.313 78.0433 187.413 78.0433 189.123ZM82.6833 189.133C82.6833 190.423 81.8233 191.173 80.8233 191.173C79.8233 191.173 78.9733 190.413 78.9733 189.123C78.9733 187.833 79.8233 187.103 80.8233 187.103C81.8233 187.103 82.6833 187.863 82.6833 189.133ZM86.0511 188.903C86.0511 187.633 86.7111 187.243 87.5811 187.243H87.8211V186.303C86.9511 186.303 86.3611 186.683 86.0511 187.293V186.403H85.1411V191.883H86.0511V188.903Z" fill="#14101D"/>
<path d="M14.16 184.833V190.073C14.16 190.653 13.9933 191.113 13.66 191.453C13.3333 191.786 12.8733 191.953 12.28 191.953C11.64 191.953 11.1367 191.766 10.77 191.393C10.41 191.013 10.23 190.483 10.23 189.803H11.14C11.14 190.209 11.23 190.533 11.41 190.773C11.59 191.006 11.8667 191.123 12.24 191.123C12.5933 191.123 12.85 191.023 13.01 190.823C13.17 190.623 13.25 190.373 13.25 190.073V184.833H14.16ZM17.8238 186.323C18.3571 186.323 18.8071 186.456 19.1738 186.723C19.5471 186.989 19.8071 187.346 19.9538 187.793V186.393H20.8638V191.883H19.9538V190.483C19.8071 190.929 19.5471 191.286 19.1738 191.553C18.8071 191.819 18.3571 191.953 17.8238 191.953C17.3371 191.953 16.9038 191.839 16.5238 191.613C16.1438 191.386 15.8438 191.063 15.6238 190.643C15.4104 190.216 15.3038 189.716 15.3038 189.143C15.3038 188.569 15.4104 188.069 15.6238 187.643C15.8438 187.216 16.1438 186.889 16.5238 186.663C16.9038 186.436 17.3371 186.323 17.8238 186.323ZM18.0838 187.133C17.5238 187.133 17.0738 187.313 16.7338 187.673C16.4004 188.026 16.2338 188.516 16.2338 189.143C16.2338 189.769 16.4004 190.263 16.7338 190.623C17.0738 190.976 17.5238 191.153 18.0838 191.153C18.4438 191.153 18.7638 191.069 19.0438 190.903C19.3304 190.736 19.5538 190.503 19.7138 190.203C19.8738 189.896 19.9538 189.543 19.9538 189.143C19.9538 188.743 19.8738 188.389 19.7138 188.083C19.5538 187.776 19.3304 187.543 19.0438 187.383C18.7638 187.216 18.4438 187.133 18.0838 187.133ZM25.202 186.303C25.842 186.303 26.3587 186.509 26.752 186.923C27.1454 187.329 27.342 187.919 27.342 188.693V191.883H26.432V188.773C26.432 188.226 26.292 187.806 26.012 187.513C25.732 187.219 25.352 187.073 24.872 187.073C24.372 187.073 23.972 187.236 23.672 187.563C23.372 187.883 23.222 188.353 23.222 188.973V191.883H22.312V186.393H23.222V187.693C23.362 187.246 23.6087 186.903 23.962 186.663C24.322 186.423 24.7354 186.303 25.202 186.303Z" fill="white" fill-opacity="0.7"/>
<path d="M44.72 184.833V185.573H41.64V188.013H44.25V188.723H41.64V191.883H40.73V184.833H44.72ZM50.8484 188.833C50.8484 189.026 50.835 189.193 50.8084 189.333H46.4184C46.4384 189.959 46.615 190.429 46.9484 190.743C47.2884 191.056 47.7017 191.213 48.1884 191.213C48.6284 191.213 48.995 191.103 49.2884 190.883C49.5884 190.656 49.7717 190.356 49.8384 189.983H50.8084C50.7417 190.363 50.5917 190.703 50.3584 191.003C50.1317 191.303 49.835 191.536 49.4684 191.703C49.1017 191.869 48.6884 191.953 48.2284 191.953C47.7017 191.953 47.235 191.839 46.8284 191.613C46.4217 191.386 46.1017 191.063 45.8684 190.643C45.6417 190.216 45.5284 189.716 45.5284 189.143C45.5284 188.569 45.6417 188.069 45.8684 187.643C46.1017 187.216 46.4217 186.889 46.8284 186.663C47.235 186.436 47.7017 186.323 48.2284 186.323C48.7617 186.323 49.225 186.436 49.6184 186.663C50.0184 186.889 50.3217 187.193 50.5284 187.573C50.7417 187.953 50.8484 188.373 50.8484 188.833ZM49.9284 188.893C49.9484 188.486 49.8817 188.146 49.7284 187.873C49.575 187.599 49.365 187.396 49.0984 187.263C48.8317 187.129 48.5417 187.063 48.2284 187.063C47.7284 187.063 47.3084 187.219 46.9684 187.533C46.6284 187.839 46.445 188.293 46.4184 188.893H49.9284ZM55.0686 186.323C55.5553 186.323 55.9886 186.436 56.3686 186.663C56.7486 186.889 57.0453 187.216 57.2586 187.643C57.4786 188.069 57.5886 188.569 57.5886 189.143C57.5886 189.716 57.4786 190.216 57.2586 190.643C57.0453 191.063 56.7486 191.386 56.3686 191.613C55.9886 191.839 55.5553 191.953 55.0686 191.953C54.5353 191.953 54.0819 191.819 53.7086 191.553C53.3419 191.279 53.0886 190.923 52.9486 190.483V191.883H52.0386V184.483H52.9486V187.793C53.0886 187.353 53.3419 186.999 53.7086 186.733C54.0819 186.459 54.5353 186.323 55.0686 186.323ZM54.8086 187.133C54.4553 187.133 54.1353 187.216 53.8486 187.383C53.5619 187.543 53.3386 187.776 53.1786 188.083C53.0186 188.389 52.9386 188.743 52.9386 189.143C52.9386 189.543 53.0186 189.896 53.1786 190.203C53.3386 190.503 53.5619 190.736 53.8486 190.903C54.1353 191.069 54.4553 191.153 54.8086 191.153C55.3753 191.153 55.8253 190.976 56.1586 190.623C56.4986 190.263 56.6686 189.769 56.6686 189.143C56.6686 188.516 56.4986 188.026 56.1586 187.673C55.8253 187.313 55.3753 187.133 54.8086 187.133Z" fill="white" fill-opacity="0.7"/>
<path d="M104.86 190.253H101.76L101.17 191.883H100.19L102.8 184.963H103.83L106.43 191.883H105.45L104.86 190.253ZM104.6 189.543L103.31 185.983L102.02 189.543H104.6ZM110.381 186.323C110.868 186.323 111.301 186.436 111.681 186.663C112.061 186.889 112.358 187.216 112.571 187.643C112.791 188.069 112.901 188.569 112.901 189.143C112.901 189.716 112.791 190.216 112.571 190.643C112.358 191.063 112.061 191.386 111.681 191.613C111.301 191.839 110.868 191.953 110.381 191.953C109.848 191.953 109.394 191.819 109.021 191.553C108.654 191.279 108.401 190.923 108.261 190.483V194.483H107.351V186.393H108.261V187.793C108.401 187.353 108.654 186.999 109.021 186.733C109.394 186.459 109.848 186.323 110.381 186.323ZM110.121 187.133C109.768 187.133 109.448 187.216 109.161 187.383C108.874 187.543 108.651 187.776 108.491 188.083C108.331 188.389 108.251 188.743 108.251 189.143C108.251 189.543 108.331 189.896 108.491 190.203C108.651 190.503 108.874 190.736 109.161 190.903C109.448 191.069 109.768 191.153 110.121 191.153C110.688 191.153 111.138 190.976 111.471 190.623C111.811 190.263 111.981 189.769 111.981 189.143C111.981 188.516 111.811 188.026 111.471 187.673C111.138 187.313 110.688 187.133 110.121 187.133ZM114.999 187.503C115.179 187.123 115.443 186.829 115.789 186.623C116.136 186.409 116.549 186.303 117.029 186.303V187.293H116.749C116.236 187.293 115.816 187.426 115.489 187.693C115.163 187.953 114.999 188.386 114.999 188.993V191.883H114.089V186.393H114.999V187.503Z" fill="white" fill-opacity="0.7"/>
<path d="M135.79 184.953V191.883H134.88V186.353L132.67 191.883H131.86L129.64 186.373V191.883H128.73V184.953H129.82L132.28 190.773L134.7 184.953H135.79ZM139.496 186.323C140.029 186.323 140.479 186.456 140.846 186.723C141.219 186.989 141.479 187.346 141.626 187.793V186.393H142.536V191.883H141.626V190.483C141.479 190.929 141.219 191.286 140.846 191.553C140.479 191.819 140.029 191.953 139.496 191.953C139.009 191.953 138.576 191.839 138.196 191.613C137.816 191.386 137.516 191.063 137.296 190.643C137.082 190.216 136.976 189.716 136.976 189.143C136.976 188.569 137.082 188.069 137.296 187.643C137.516 187.216 137.816 186.889 138.196 186.663C138.576 186.436 139.009 186.323 139.496 186.323ZM139.756 187.133C139.196 187.133 138.746 187.313 138.406 187.673C138.072 188.026 137.906 188.516 137.906 189.143C137.906 189.769 138.072 190.263 138.406 190.623C138.746 190.976 139.196 191.153 139.756 191.153C140.116 191.153 140.436 191.069 140.716 190.903C141.002 190.736 141.226 190.503 141.386 190.203C141.546 189.896 141.626 189.543 141.626 189.143C141.626 188.743 141.546 188.389 141.386 188.083C141.226 187.776 141.002 187.543 140.716 187.383C140.436 187.216 140.116 187.133 139.756 187.133ZM144.364 186.393L146.144 190.713L147.794 186.393H148.804L145.544 194.483H144.514L145.654 191.793L143.344 186.393H144.364Z" fill="white" fill-opacity="0.7"/>
<path d="M165.16 184.833V190.073C165.16 190.653 164.993 191.113 164.66 191.453C164.333 191.786 163.873 191.953 163.28 191.953C162.64 191.953 162.137 191.766 161.77 191.393C161.41 191.013 161.23 190.483 161.23 189.803H162.14C162.14 190.209 162.23 190.533 162.41 190.773C162.59 191.006 162.867 191.123 163.24 191.123C163.593 191.123 163.85 191.023 164.01 190.823C164.17 190.623 164.25 190.373 164.25 190.073V184.833H165.16ZM171.454 186.393V191.883H170.544V190.593C170.404 191.039 170.154 191.383 169.794 191.623C169.44 191.856 169.027 191.973 168.554 191.973C167.92 191.973 167.407 191.769 167.014 191.363C166.62 190.949 166.424 190.359 166.424 189.593V186.393H167.334V189.503C167.334 190.049 167.474 190.473 167.754 190.773C168.034 191.066 168.414 191.213 168.894 191.213C169.394 191.213 169.794 191.053 170.094 190.733C170.394 190.406 170.544 189.933 170.544 189.313V186.393H171.454ZM175.802 186.303C176.442 186.303 176.958 186.509 177.352 186.923C177.745 187.329 177.942 187.919 177.942 188.693V191.883H177.032V188.773C177.032 188.226 176.892 187.806 176.612 187.513C176.332 187.219 175.952 187.073 175.472 187.073C174.972 187.073 174.572 187.236 174.272 187.563C173.972 187.883 173.822 188.353 173.822 188.973V191.883H172.912V186.393H173.822V187.693C173.962 187.246 174.208 186.903 174.562 186.663C174.922 186.423 175.335 186.303 175.802 186.303Z" fill="white" fill-opacity="0.7"/>
<path d="M196.16 184.833V190.073C196.16 190.653 195.993 191.113 195.66 191.453C195.333 191.786 194.873 191.953 194.28 191.953C193.64 191.953 193.137 191.766 192.77 191.393C192.41 191.013 192.23 190.483 192.23 189.803H193.14C193.14 190.209 193.23 190.533 193.41 190.773C193.59 191.006 193.867 191.123 194.24 191.123C194.593 191.123 194.85 191.023 195.01 190.823C195.17 190.623 195.25 190.373 195.25 190.073V184.833H196.16ZM202.454 186.393V191.883H201.544V190.593C201.404 191.039 201.154 191.383 200.794 191.623C200.44 191.856 200.027 191.973 199.554 191.973C198.92 191.973 198.407 191.769 198.014 191.363C197.62 190.949 197.424 190.359 197.424 189.593V186.393H198.334V189.503C198.334 190.049 198.474 190.473 198.754 190.773C199.034 191.066 199.414 191.213 199.894 191.213C200.394 191.213 200.794 191.053 201.094 190.733C201.394 190.406 201.544 189.933 201.544 189.313V186.393H202.454ZM204.822 184.483V191.883H203.912V184.483H204.822Z" fill="white" fill-opacity="0.7"/>
<path d="M0 91.2903C3.79619 91.2903 6.07296 90.3729 9.72074 91.2903C16.0933 92.8929 15.6016 99.5559 21.7287 101.771C27.3029 103.786 31.3287 100.944 37.1676 102.27C50.3128 105.256 49.0392 120.773 62.3271 123.231C67.57 124.201 70.8512 122.096 76.0505 123.231C87.0799 125.637 85.7611 144.091 96.6356 141.197C101.78 139.828 101.884 134.839 106.928 133.212C119.373 129.198 118.656 156.521 131.516 153.674C139.017 152.014 138.459 143.805 145.811 141.696C151.115 140.175 154.572 142.333 160.106 141.696C185.469 138.779 181.491 103.518 206.995 101.771C210.111 101.557 215 101.771 215 101.771" stroke="url(#paint1_linear_228561_34)" stroke-opacity="0.2"/>
<path d="M76 122.94C87.0221 125.369 85.7041 143.998 96.5714 141.077C101.712 139.695 101.816 134.659 106.857 133.016C119.294 128.964 118.577 156.546 131.429 153.672C138.925 151.996 138.367 143.709 145.714 141.581C151.014 140.045 154.469 142.224 160 141.581C173.164 140.051 178.419 129.713 184 119.883" stroke="url(#paint2_linear_228561_34)" stroke-width="2" stroke-linecap="round"/>
<path d="M3.996 50.1066C4.564 50.2826 5.02 50.4506 5.364 50.6106C5.716 50.7706 6.012 51.0146 6.252 51.3426C6.5 51.6626 6.624 52.0906 6.624 52.6266C6.624 53.0426 6.516 53.4306 6.3 53.7906C6.092 54.1426 5.776 54.4266 5.352 54.6426C4.928 54.8586 4.408 54.9666 3.792 54.9666H3.768V55.9266H3.36V54.9426C2.568 54.8786 1.92 54.6306 1.416 54.1986C0.912 53.7586 0.632 53.2026 0.576 52.5306H2.04C2.072 52.8426 2.2 53.1266 2.424 53.3826C2.656 53.6386 2.968 53.7986 3.36 53.8626V51.1386C2.704 50.9386 2.204 50.7666 1.86 50.6226C1.516 50.4706 1.212 50.2306 0.948 49.9026C0.684 49.5746 0.552 49.1346 0.552 48.5826C0.552 48.1346 0.668 47.7386 0.9 47.3946C1.14 47.0506 1.472 46.7826 1.896 46.5906C2.32 46.3986 2.808 46.3026 3.36 46.3026V45.2826H3.768V46.3146C4.552 46.3706 5.176 46.6026 5.64 47.0106C6.104 47.4186 6.372 47.9346 6.444 48.5586H4.968C4.92 48.2706 4.792 48.0226 4.584 47.8146C4.384 47.5986 4.112 47.4586 3.768 47.3946V50.0346L3.996 50.1066ZM2.016 48.5346C2.016 48.8866 2.132 49.1666 2.364 49.3746C2.596 49.5746 2.928 49.7506 3.36 49.9026V47.3586C2.944 47.3666 2.616 47.4746 2.376 47.6826C2.136 47.8826 2.016 48.1666 2.016 48.5346ZM3.768 53.8986C4.208 53.8986 4.548 53.7826 4.788 53.5506C5.036 53.3186 5.16 53.0226 5.16 52.6626C5.16 52.2946 5.04 52.0106 4.8 51.8106C4.56 51.6026 4.216 51.4226 3.768 51.2706V53.8986ZM10.4527 53.8146C11.7487 52.9266 12.7847 52.0586 13.5607 51.2106C14.3447 50.3546 14.7367 49.5626 14.7367 48.8346C14.7367 48.4026 14.6287 48.0586 14.4127 47.8026C14.2047 47.5466 13.8647 47.4186 13.3927 47.4186C12.9047 47.4186 12.5367 47.5786 12.2887 47.8986C12.0407 48.2106 11.9007 48.6586 11.8687 49.2426H10.5367C10.5927 48.2746 10.8887 47.5346 11.4247 47.0226C11.9687 46.5106 12.6607 46.2546 13.5007 46.2546C14.3247 46.2546 14.9687 46.4746 15.4327 46.9146C15.9047 47.3466 16.1407 47.9466 16.1407 48.7146C16.1407 49.3306 15.9487 49.9546 15.5647 50.5866C15.1887 51.2186 14.7087 51.8026 14.1247 52.3386C13.5407 52.8666 12.9367 53.3226 12.3127 53.7066H16.3327V54.8226H10.4527V53.8146ZM18.4493 53.9466C18.5933 54.3146 18.6653 54.6946 18.6653 55.0866C18.6653 55.5346 18.5493 55.8986 18.3173 56.1786C18.0853 56.4666 17.7333 56.6106 17.2613 56.6106V56.0586C17.4613 56.0586 17.6093 56.0066 17.7053 55.9026C17.8013 55.7986 17.8493 55.6226 17.8493 55.3746V55.2666H17.1533V53.9466H18.4493ZM22.7016 46.1466C23.2616 46.1466 23.7416 46.2466 24.1416 46.4466C24.5416 46.6386 24.8416 46.9066 25.0416 47.2506C25.2496 47.5946 25.3536 47.9786 25.3536 48.4026C25.3536 48.9386 25.2016 49.3866 24.8976 49.7466C24.6016 50.0986 24.1816 50.3106 23.6376 50.3826V50.4426C24.2216 50.6106 24.6776 50.8626 25.0056 51.1986C25.3416 51.5266 25.5096 51.9826 25.5096 52.5666C25.5096 53.2786 25.2736 53.8586 24.8016 54.3066C24.3296 54.7466 23.6536 54.9666 22.7736 54.9666C21.8696 54.9666 21.1416 54.7386 20.5896 54.2826C20.0376 53.8186 19.7216 53.1346 19.6416 52.2306H20.9976C21.0456 52.7106 21.2176 53.0946 21.5136 53.3826C21.8096 53.6626 22.2096 53.8026 22.7136 53.8026C23.1856 53.8026 23.5456 53.6786 23.7936 53.4306C24.0496 53.1826 24.1776 52.8626 24.1776 52.4706C24.1776 51.9986 23.9936 51.6386 23.6256 51.3906C23.2656 51.1426 22.7416 51.0186 22.0536 51.0186H21.7296V49.8906H22.0536C23.3576 49.9066 24.0096 49.4626 24.0096 48.5586C24.0096 48.1666 23.8896 47.8586 23.6496 47.6346C23.4096 47.4106 23.0816 47.2986 22.6656 47.2986C22.2496 47.2986 21.9016 47.4266 21.6216 47.6826C21.3416 47.9306 21.1736 48.2946 21.1176 48.7746H19.7736C19.8296 47.9426 20.1096 47.2986 20.6136 46.8426C21.1176 46.3786 21.8136 46.1466 22.7016 46.1466ZM29.8266 46.1466C30.3866 46.1466 30.8666 46.2466 31.2666 46.4466C31.6666 46.6386 31.9666 46.9066 32.1666 47.2506C32.3746 47.5946 32.4786 47.9786 32.4786 48.4026C32.4786 48.9386 32.3266 49.3866 32.0226 49.7466C31.7266 50.0986 31.3066 50.3106 30.7626 50.3826V50.4426C31.3466 50.6106 31.8026 50.8626 32.1306 51.1986C32.4666 51.5266 32.6346 51.9826 32.6346 52.5666C32.6346 53.2786 32.3986 53.8586 31.9266 54.3066C31.4546 54.7466 30.7786 54.9666 29.8986 54.9666C28.9946 54.9666 28.2666 54.7386 27.7146 54.2826C27.1626 53.8186 26.8466 53.1346 26.7666 52.2306H28.1226C28.1706 52.7106 28.3426 53.0946 28.6386 53.3826C28.9346 53.6626 29.3346 53.8026 29.8386 53.8026C30.3106 53.8026 30.6706 53.6786 30.9186 53.4306C31.1746 53.1826 31.3026 52.8626 31.3026 52.4706C31.3026 51.9986 31.1186 51.6386 30.7506 51.3906C30.3906 51.1426 29.8666 51.0186 29.1786 51.0186H28.8546V49.8906H29.1786C30.4826 49.9066 31.1346 49.4626 31.1346 48.5586C31.1346 48.1666 31.0146 47.8586 30.7746 47.6346C30.5346 47.4106 30.2066 47.2986 29.7906 47.2986C29.3746 47.2986 29.0266 47.4266 28.7466 47.6826C28.4666 47.9306 28.2986 48.2946 28.2426 48.7746H26.8986C26.9546 47.9426 27.2346 47.2986 27.7386 46.8426C28.2426 46.3786 28.9386 46.1466 29.8266 46.1466ZM33.7716 53.0586V51.9066L37.9836 46.3386H39.4476V51.8586H40.6356V53.0586H39.4476V54.8826H38.0676V53.0586H33.7716ZM38.1636 47.9706L35.1876 51.8586H38.1636V47.9706ZM42.6368 53.9466C42.7808 54.3146 42.8528 54.6946 42.8528 55.0866C42.8528 55.5346 42.7368 55.8986 42.5048 56.1786C42.2728 56.4666 41.9208 56.6106 41.4488 56.6106V56.0586C41.6488 56.0586 41.7968 56.0066 41.8928 55.9026C41.9888 55.7986 42.0368 55.6226 42.0368 55.3746V55.2666H41.3408V53.9466H42.6368ZM48.5571 48.6906C48.4131 47.7466 47.9211 47.2746 47.0811 47.2746C46.4731 47.2746 46.0171 47.5186 45.7131 48.0066C45.4091 48.4866 45.2571 49.2426 45.2571 50.2746L45.2691 50.6826C45.3891 50.2506 45.6491 49.9066 46.0491 49.6506C46.4491 49.3946 46.9211 49.2666 47.4651 49.2666C48.2971 49.2666 48.9491 49.5146 49.4211 50.0106C49.8931 50.5066 50.1291 51.2066 50.1291 52.1106C50.1291 52.6546 50.0211 53.1426 49.8051 53.5746C49.5891 53.9986 49.2651 54.3386 48.8331 54.5946C48.4011 54.8426 47.8691 54.9666 47.2371 54.9666C46.0131 54.9666 45.1731 54.5866 44.7171 53.8266C44.2611 53.0666 44.0331 52.0226 44.0331 50.6946C44.0331 49.1746 44.2771 48.0386 44.7651 47.2866C45.2531 46.5346 46.0531 46.1586 47.1651 46.1586C47.9971 46.1586 48.6331 46.3946 49.0731 46.8666C49.5211 47.3386 49.7811 47.9466 49.8531 48.6906H48.5571ZM45.3891 51.9546C45.3891 52.4746 45.5411 52.9106 45.8451 53.2626C46.1491 53.6066 46.5971 53.7786 47.1891 53.7786C47.6931 53.7786 48.0931 53.6306 48.3891 53.3346C48.6931 53.0386 48.8451 52.6266 48.8451 52.0986C48.8451 51.5306 48.6931 51.0946 48.3891 50.7906C48.0851 50.4866 47.6731 50.3346 47.1531 50.3346C46.6811 50.3346 46.2691 50.4746 45.9171 50.7546C45.5651 51.0346 45.3891 51.4346 45.3891 51.9546ZM56.5376 47.3946L53.3816 54.8826H51.9416L55.1456 47.5506H50.9456V46.3626H56.5376V47.3946Z" fill="#00D2AA"/>
<path d="M1.476 61.5376V67.8826H0.657V61.5376H1.476ZM5.39374 62.8606C5.96974 62.8606 6.43474 63.0466 6.78874 63.4186C7.14274 63.7846 7.31974 64.3156 7.31974 65.0116V67.8826H6.50074V65.0836C6.50074 64.5916 6.37474 64.2136 6.12274 63.9496C5.87074 63.6856 5.52874 63.5536 5.09674 63.5536C4.64674 63.5536 4.28674 63.7006 4.01674 63.9946C3.74674 64.2826 3.61174 64.7056 3.61174 65.2636V67.8826H2.79274V62.9416H3.61174V64.1116C3.73774 63.7096 3.95974 63.4006 4.27774 63.1846C4.60174 62.9686 4.97374 62.8606 5.39374 62.8606ZM10.7629 62.8786C11.3929 62.8786 11.9149 63.0466 12.3289 63.3826C12.7429 63.7186 12.9979 64.1686 13.0939 64.7326H12.2299C12.1699 64.3786 12.0049 64.1026 11.7349 63.9046C11.4709 63.7006 11.1409 63.5986 10.7449 63.5986C10.4569 63.5986 10.1929 63.6646 9.95295 63.7966C9.71895 63.9286 9.52995 64.1326 9.38595 64.4086C9.24195 64.6786 9.16995 65.0146 9.16995 65.4166C9.16995 65.8186 9.24195 66.1576 9.38595 66.4336C9.52995 66.7036 9.71895 66.9046 9.95295 67.0366C10.1929 67.1686 10.4569 67.2346 10.7449 67.2346C11.1409 67.2346 11.4709 67.1326 11.7349 66.9286C12.0049 66.7246 12.1699 66.4456 12.2299 66.0916H13.0939C12.9979 66.6616 12.7429 67.1146 12.3289 67.4506C11.9149 67.7806 11.3929 67.9456 10.7629 67.9456C10.2889 67.9456 9.86895 67.8436 9.50295 67.6396C9.13695 67.4356 8.84895 67.1446 8.63895 66.7666C8.43495 66.3826 8.33295 65.9326 8.33295 65.4166C8.33295 64.9006 8.43495 64.4506 8.63895 64.0666C8.84895 63.6826 9.13695 63.3886 9.50295 63.1846C9.86895 62.9806 10.2889 62.8786 10.7629 62.8786ZM16.4068 62.8786C16.8808 62.8786 17.3038 62.9806 17.6758 63.1846C18.0538 63.3886 18.3478 63.6826 18.5578 64.0666C18.7738 64.4506 18.8818 64.9006 18.8818 65.4166C18.8818 65.9326 18.7738 66.3826 18.5578 66.7666C18.3478 67.1446 18.0538 67.4356 17.6758 67.6396C17.3038 67.8436 16.8808 67.9456 16.4068 67.9456C15.9328 67.9456 15.5068 67.8436 15.1288 67.6396C14.7568 67.4356 14.4628 67.1446 14.2468 66.7666C14.0308 66.3826 13.9228 65.9326 13.9228 65.4166C13.9228 64.9006 14.0308 64.4506 14.2468 64.0666C14.4628 63.6826 14.7568 63.3886 15.1288 63.1846C15.5068 62.9806 15.9328 62.8786 16.4068 62.8786ZM16.4068 63.5986C16.1128 63.5986 15.8398 63.6646 15.5878 63.7966C15.3418 63.9286 15.1408 64.1326 14.9848 64.4086C14.8348 64.6786 14.7598 65.0146 14.7598 65.4166C14.7598 65.8126 14.8348 66.1486 14.9848 66.4246C15.1408 66.6946 15.3418 66.8956 15.5878 67.0276C15.8398 67.1596 16.1128 67.2256 16.4068 67.2256C16.7008 67.2256 16.9708 67.1596 17.2168 67.0276C17.4688 66.8956 17.6698 66.6946 17.8198 66.4246C17.9758 66.1486 18.0538 65.8126 18.0538 65.4166C18.0538 65.0146 17.9758 64.6786 17.8198 64.4086C17.6698 64.1326 17.4688 63.9286 17.2168 63.7966C16.9708 63.6646 16.7008 63.5986 16.4068 63.5986ZM26.024 62.8606C26.6 62.8606 27.062 63.0466 27.41 63.4186C27.764 63.7846 27.941 64.3156 27.941 65.0116V67.8826H27.122V65.0836C27.122 64.5976 27.002 64.2256 26.762 63.9676C26.528 63.7096 26.204 63.5806 25.79 63.5806C25.358 63.5806 25.01 63.7246 24.746 64.0126C24.488 64.2946 24.359 64.7116 24.359 65.2636V67.8826H23.54V65.0836C23.54 64.5976 23.42 64.2256 23.18 63.9676C22.94 63.7096 22.616 63.5806 22.208 63.5806C21.77 63.5806 21.419 63.7246 21.155 64.0126C20.897 64.2946 20.768 64.7116 20.768 65.2636V67.8826H19.949V62.9416H20.768V64.0666C20.888 63.6766 21.101 63.3796 21.407 63.1756C21.719 62.9656 22.076 62.8606 22.478 62.8606C22.898 62.8606 23.261 62.9686 23.567 63.1846C23.879 63.3946 24.101 63.7066 24.233 64.1206C24.371 63.7186 24.602 63.4096 24.926 63.1936C25.25 62.9716 25.616 62.8606 26.024 62.8606ZM33.7577 65.1376C33.7577 65.3116 33.7457 65.4616 33.7217 65.5876H29.7707C29.7887 66.1516 29.9477 66.5746 30.2477 66.8566C30.5537 67.1386 30.9257 67.2796 31.3637 67.2796C31.7597 67.2796 32.0897 67.1806 32.3537 66.9826C32.6237 66.7786 32.7887 66.5086 32.8487 66.1726H33.7217C33.6617 66.5146 33.5267 66.8206 33.3167 67.0906C33.1127 67.3606 32.8457 67.5706 32.5157 67.7206C32.1857 67.8706 31.8137 67.9456 31.3997 67.9456C30.9257 67.9456 30.5057 67.8436 30.1397 67.6396C29.7737 67.4356 29.4857 67.1446 29.2757 66.7666C29.0717 66.3826 28.9697 65.9326 28.9697 65.4166C28.9697 64.9006 29.0717 64.4506 29.2757 64.0666C29.4857 63.6826 29.7737 63.3886 30.1397 63.1846C30.5057 62.9806 30.9257 62.8786 31.3997 62.8786C31.8797 62.8786 32.2967 62.9806 32.6507 63.1846C33.0107 63.3886 33.2837 63.6616 33.4697 64.0036C33.6617 64.3456 33.7577 64.7236 33.7577 65.1376ZM32.9297 65.1916C32.9477 64.8256 32.8877 64.5196 32.7497 64.2736C32.6117 64.0276 32.4227 63.8446 32.1827 63.7246C31.9427 63.6046 31.6817 63.5446 31.3997 63.5446C30.9497 63.5446 30.5717 63.6856 30.2657 63.9676C29.9597 64.2436 29.7947 64.6516 29.7707 65.1916H32.9297Z" fill="#00D2AA" fill-opacity="0.7"/>
<path d="M177.506 50.1066C178.074 50.2826 178.53 50.4506 178.874 50.6106C179.226 50.7706 179.522 51.0146 179.762 51.3426C180.01 51.6626 180.134 52.0906 180.134 52.6266C180.134 53.0426 180.026 53.4306 179.81 53.7906C179.602 54.1426 179.286 54.4266 178.862 54.6426C178.438 54.8586 177.918 54.9666 177.302 54.9666H177.278V55.9266H176.87V54.9426C176.078 54.8786 175.43 54.6306 174.926 54.1986C174.422 53.7586 174.142 53.2026 174.086 52.5306H175.55C175.582 52.8426 175.71 53.1266 175.934 53.3826C176.166 53.6386 176.478 53.7986 176.87 53.8626V51.1386C176.214 50.9386 175.714 50.7666 175.37 50.6226C175.026 50.4706 174.722 50.2306 174.458 49.9026C174.194 49.5746 174.062 49.1346 174.062 48.5826C174.062 48.1346 174.178 47.7386 174.41 47.3946C174.65 47.0506 174.982 46.7826 175.406 46.5906C175.83 46.3986 176.318 46.3026 176.87 46.3026V45.2826H177.278V46.3146C178.062 46.3706 178.686 46.6026 179.15 47.0106C179.614 47.4186 179.882 47.9346 179.954 48.5586H178.478C178.43 48.2706 178.302 48.0226 178.094 47.8146C177.894 47.5986 177.622 47.4586 177.278 47.3946V50.0346L177.506 50.1066ZM175.526 48.5346C175.526 48.8866 175.642 49.1666 175.874 49.3746C176.106 49.5746 176.438 49.7506 176.87 49.9026V47.3586C176.454 47.3666 176.126 47.4746 175.886 47.6826C175.646 47.8826 175.526 48.1666 175.526 48.5346ZM177.278 53.8986C177.718 53.8986 178.058 53.7826 178.298 53.5506C178.546 53.3186 178.67 53.0226 178.67 52.6626C178.67 52.2946 178.55 52.0106 178.31 51.8106C178.07 51.6026 177.726 51.4226 177.278 51.2706V53.8986ZM189.974 47.4906H185.786V50.0106C185.978 49.7626 186.25 49.5666 186.602 49.4226C186.954 49.2706 187.342 49.1946 187.766 49.1946C188.358 49.1946 188.85 49.3226 189.242 49.5786C189.634 49.8266 189.922 50.1586 190.106 50.5746C190.298 50.9906 190.394 51.4506 190.394 51.9546C190.394 52.8426 190.146 53.5626 189.65 54.1146C189.154 54.6586 188.434 54.9306 187.49 54.9306C186.602 54.9306 185.886 54.6946 185.342 54.2226C184.798 53.7506 184.502 53.1226 184.454 52.3386H185.798C185.87 52.7706 186.046 53.1106 186.326 53.3586C186.614 53.6066 186.978 53.7306 187.418 53.7306C187.962 53.7306 188.37 53.5666 188.642 53.2386C188.914 52.9106 189.05 52.4746 189.05 51.9306C189.05 51.4186 188.91 51.0186 188.63 50.7306C188.35 50.4346 187.95 50.2866 187.43 50.2866C187.062 50.2866 186.738 50.3666 186.458 50.5266C186.186 50.6866 185.986 50.8986 185.858 51.1626H184.526V46.2786H189.974V47.4906ZM192.879 53.3706V54.8826H191.331V53.3706H192.879ZM196.856 46.1466C197.416 46.1466 197.896 46.2466 198.296 46.4466C198.696 46.6386 198.996 46.9066 199.196 47.2506C199.404 47.5946 199.508 47.9786 199.508 48.4026C199.508 48.9386 199.356 49.3866 199.052 49.7466C198.756 50.0986 198.336 50.3106 197.792 50.3826V50.4426C198.376 50.6106 198.832 50.8626 199.16 51.1986C199.496 51.5266 199.664 51.9826 199.664 52.5666C199.664 53.2786 199.428 53.8586 198.956 54.3066C198.484 54.7466 197.808 54.9666 196.928 54.9666C196.024 54.9666 195.296 54.7386 194.744 54.2826C194.192 53.8186 193.876 53.1346 193.796 52.2306H195.152C195.2 52.7106 195.372 53.0946 195.668 53.3826C195.964 53.6626 196.364 53.8026 196.868 53.8026C197.34 53.8026 197.7 53.6786 197.948 53.4306C198.204 53.1826 198.332 52.8626 198.332 52.4706C198.332 51.9986 198.148 51.6386 197.78 51.3906C197.42 51.1426 196.896 51.0186 196.208 51.0186H195.884V49.8906H196.208C197.512 49.9066 198.164 49.4626 198.164 48.5586C198.164 48.1666 198.044 47.8586 197.804 47.6346C197.564 47.4106 197.236 47.2986 196.82 47.2986C196.404 47.2986 196.056 47.4266 195.776 47.6826C195.496 47.9306 195.328 48.2946 195.272 48.7746H193.928C193.984 47.9426 194.264 47.2986 194.768 46.8426C195.272 46.3786 195.968 46.1466 196.856 46.1466ZM200.537 47.6946V46.4106H203.249V54.8826H201.809V47.6946H200.537ZM213.673 46.5426V54.8826H212.293V48.6306L209.881 54.8826H208.681L206.257 48.6306V54.8826H204.889V46.5426H206.545L209.305 53.2026L212.017 46.5426H213.673Z" fill="#00D9F5"/>
<path d="M174.738 62.2036V64.3726H177.15V65.0026H174.738V67.2166H177.42V67.8826H173.919V61.5376H177.42V62.2036H174.738ZM181.316 67.8826L180.029 65.9926L178.868 67.8826H177.959L179.579 65.3356L177.95 62.9416H178.886L180.137 64.7776L181.28 62.9416H182.189L180.578 65.4256L182.252 67.8826H181.316ZM185.743 62.8786C186.181 62.8786 186.571 62.9806 186.913 63.1846C187.255 63.3886 187.522 63.6826 187.714 64.0666C187.912 64.4506 188.011 64.9006 188.011 65.4166C188.011 65.9326 187.912 66.3826 187.714 66.7666C187.522 67.1446 187.255 67.4356 186.913 67.6396C186.571 67.8436 186.181 67.9456 185.743 67.9456C185.263 67.9456 184.855 67.8256 184.519 67.5856C184.189 67.3396 183.961 67.0186 183.835 66.6226V70.2226H183.016V62.9416H183.835V64.2016C183.961 63.8056 184.189 63.4876 184.519 63.2476C184.855 63.0016 185.263 62.8786 185.743 62.8786ZM185.509 63.6076C185.191 63.6076 184.903 63.6826 184.645 63.8326C184.387 63.9766 184.186 64.1866 184.042 64.4626C183.898 64.7386 183.826 65.0566 183.826 65.4166C183.826 65.7766 183.898 66.0946 184.042 66.3706C184.186 66.6406 184.387 66.8506 184.645 67.0006C184.903 67.1506 185.191 67.2256 185.509 67.2256C186.019 67.2256 186.424 67.0666 186.724 66.7486C187.03 66.4246 187.183 65.9806 187.183 65.4166C187.183 64.8526 187.03 64.4116 186.724 64.0936C186.424 63.7696 186.019 63.6076 185.509 63.6076ZM193.625 65.1376C193.625 65.3116 193.613 65.4616 193.589 65.5876H189.638C189.656 66.1516 189.815 66.5746 190.115 66.8566C190.421 67.1386 190.793 67.2796 191.231 67.2796C191.627 67.2796 191.957 67.1806 192.221 66.9826C192.491 66.7786 192.656 66.5086 192.716 66.1726H193.589C193.529 66.5146 193.394 66.8206 193.184 67.0906C192.98 67.3606 192.713 67.5706 192.383 67.7206C192.053 67.8706 191.681 67.9456 191.267 67.9456C190.793 67.9456 190.373 67.8436 190.007 67.6396C189.641 67.4356 189.353 67.1446 189.143 66.7666C188.939 66.3826 188.837 65.9326 188.837 65.4166C188.837 64.9006 188.939 64.4506 189.143 64.0666C189.353 63.6826 189.641 63.3886 190.007 63.1846C190.373 62.9806 190.793 62.8786 191.267 62.8786C191.747 62.8786 192.164 62.9806 192.518 63.1846C192.878 63.3886 193.151 63.6616 193.337 64.0036C193.529 64.3456 193.625 64.7236 193.625 65.1376ZM192.797 65.1916C192.815 64.8256 192.755 64.5196 192.617 64.2736C192.479 64.0276 192.29 63.8446 192.05 63.7246C191.81 63.6046 191.549 63.5446 191.267 63.5446C190.817 63.5446 190.439 63.6856 190.133 63.9676C189.827 64.2436 189.662 64.6516 189.638 65.1916H192.797ZM197.298 62.8606C197.874 62.8606 198.339 63.0466 198.693 63.4186C199.047 63.7846 199.224 64.3156 199.224 65.0116V67.8826H198.405V65.0836C198.405 64.5916 198.279 64.2136 198.027 63.9496C197.775 63.6856 197.433 63.5536 197.001 63.5536C196.551 63.5536 196.191 63.7006 195.921 63.9946C195.651 64.2826 195.516 64.7056 195.516 65.2636V67.8826H194.697V62.9416H195.516V64.1116C195.642 63.7096 195.864 63.4006 196.182 63.1846C196.506 62.9686 196.878 62.8606 197.298 62.8606ZM202.028 62.8786C202.586 62.8786 203.033 63.0256 203.369 63.3196C203.711 63.6076 203.918 63.9976 203.99 64.4896H203.207C203.171 64.1956 203.048 63.9556 202.838 63.7696C202.634 63.5776 202.358 63.4816 202.01 63.4816C201.716 63.4816 201.485 63.5536 201.317 63.6976C201.155 63.8356 201.074 64.0246 201.074 64.2646C201.074 64.4446 201.128 64.5916 201.236 64.7056C201.35 64.8136 201.488 64.8976 201.65 64.9576C201.818 65.0116 202.046 65.0716 202.334 65.1376C202.7 65.2216 202.994 65.3086 203.216 65.3986C203.444 65.4826 203.636 65.6206 203.792 65.8126C203.954 66.0046 204.035 66.2626 204.035 66.5866C204.035 66.9886 203.882 67.3156 203.576 67.5676C203.276 67.8196 202.874 67.9456 202.37 67.9456C201.782 67.9456 201.302 67.8046 200.93 67.5226C200.558 67.2406 200.339 66.8476 200.273 66.3436H201.065C201.095 66.6436 201.224 66.8866 201.452 67.0726C201.686 67.2586 201.992 67.3516 202.37 67.3516C202.652 67.3516 202.871 67.2796 203.027 67.1356C203.189 66.9916 203.27 66.8026 203.27 66.5686C203.27 66.3766 203.213 66.2236 203.099 66.1096C202.985 65.9956 202.844 65.9086 202.676 65.8486C202.508 65.7886 202.277 65.7256 201.983 65.6596C201.617 65.5756 201.323 65.4916 201.101 65.4076C200.885 65.3236 200.699 65.1916 200.543 65.0116C200.393 64.8256 200.318 64.5766 200.318 64.2646C200.318 63.8506 200.471 63.5176 200.777 63.2656C201.083 63.0076 201.5 62.8786 202.028 62.8786ZM209.674 65.1376C209.674 65.3116 209.662 65.4616 209.638 65.5876H205.687C205.705 66.1516 205.864 66.5746 206.164 66.8566C206.47 67.1386 206.842 67.2796 207.28 67.2796C207.676 67.2796 208.006 67.1806 208.27 66.9826C208.54 66.7786 208.705 66.5086 208.765 66.1726H209.638C209.578 66.5146 209.443 66.8206 209.233 67.0906C209.029 67.3606 208.762 67.5706 208.432 67.7206C208.102 67.8706 207.73 67.9456 207.316 67.9456C206.842 67.9456 206.422 67.8436 206.056 67.6396C205.69 67.4356 205.402 67.1446 205.192 66.7666C204.988 66.3826 204.886 65.9326 204.886 65.4166C204.886 64.9006 204.988 64.4506 205.192 64.0666C205.402 63.6826 205.69 63.3886 206.056 63.1846C206.422 62.9806 206.842 62.8786 207.316 62.8786C207.796 62.8786 208.213 62.9806 208.567 63.1846C208.927 63.3886 209.2 63.6616 209.386 64.0036C209.578 64.3456 209.674 64.7236 209.674 65.1376ZM208.846 65.1916C208.864 64.8256 208.804 64.5196 208.666 64.2736C208.528 64.0276 208.339 63.8446 208.099 63.7246C207.859 63.6046 207.598 63.5446 207.316 63.5446C206.866 63.5446 206.488 63.6856 206.182 63.9676C205.876 64.2436 205.711 64.6516 205.687 65.1916H208.846ZM212.293 62.8786C212.851 62.8786 213.298 63.0256 213.634 63.3196C213.976 63.6076 214.183 63.9976 214.255 64.4896H213.472C213.436 64.1956 213.313 63.9556 213.103 63.7696C212.899 63.5776 212.623 63.4816 212.275 63.4816C211.981 63.4816 211.75 63.5536 211.582 63.6976C211.42 63.8356 211.339 64.0246 211.339 64.2646C211.339 64.4446 211.393 64.5916 211.501 64.7056C211.615 64.8136 211.753 64.8976 211.915 64.9576C212.083 65.0116 212.311 65.0716 212.599 65.1376C212.965 65.2216 213.259 65.3086 213.481 65.3986C213.709 65.4826 213.901 65.6206 214.057 65.8126C214.219 66.0046 214.3 66.2626 214.3 66.5866C214.3 66.9886 214.147 67.3156 213.841 67.5676C213.541 67.8196 213.139 67.9456 212.635 67.9456C212.047 67.9456 211.567 67.8046 211.195 67.5226C210.823 67.2406 210.604 66.8476 210.538 66.3436H211.33C211.36 66.6436 211.489 66.8866 211.717 67.0726C211.951 67.2586 212.257 67.3516 212.635 67.3516C212.917 67.3516 213.136 67.2796 213.292 67.1356C213.454 66.9916 213.535 66.8026 213.535 66.5686C213.535 66.3766 213.478 66.2236 213.364 66.1096C213.25 65.9956 213.109 65.9086 212.941 65.8486C212.773 65.7886 212.542 65.7256 212.248 65.6596C211.882 65.5756 211.588 65.4916 211.366 65.4076C211.15 65.3236 210.964 65.1916 210.808 65.0116C210.658 64.8256 210.583 64.5766 210.583 64.2646C210.583 63.8506 210.736 63.5176 211.042 63.2656C211.348 63.0076 211.765 62.8786 212.293 62.8786Z" fill="#00D9F5" fill-opacity="0.7"/>
<path d="M6.32 5.42657C7.376 5.42657 8.33067 5.6719 9.184 6.16257C10.048 6.65323 10.7253 7.34123 11.216 8.22657C11.7173 9.10123 11.968 10.0932 11.968 11.2026C11.968 12.3119 11.7173 13.3092 11.216 14.1946C10.7253 15.0799 10.048 15.7679 9.184 16.2586C8.33067 16.7492 7.376 16.9946 6.32 16.9946C5.264 16.9946 4.304 16.7492 3.44 16.2586C2.58667 15.7679 1.90933 15.0799 1.408 14.1946C0.917333 13.3092 0.672 12.3119 0.672 11.2026C0.672 10.0932 0.917333 9.10123 1.408 8.22657C1.90933 7.34123 2.58667 6.65323 3.44 6.16257C4.304 5.6719 5.264 5.42657 6.32 5.42657ZM6.32 7.50657C5.65867 7.50657 5.07733 7.6559 4.576 7.95457C4.07467 8.25323 3.68 8.68523 3.392 9.25057C3.11467 9.80523 2.976 10.4559 2.976 11.2026C2.976 11.9492 3.11467 12.6052 3.392 13.1706C3.68 13.7252 4.07467 14.1519 4.576 14.4506C5.07733 14.7492 5.65867 14.8986 6.32 14.8986C6.98133 14.8986 7.56267 14.7492 8.064 14.4506C8.56533 14.1519 8.95467 13.7252 9.232 13.1706C9.52 12.6052 9.664 11.9492 9.664 11.2026C9.664 10.4559 9.52 9.80523 9.232 9.25057C8.95467 8.68523 8.56533 8.25323 8.064 7.95457C7.56267 7.6559 6.98133 7.50657 6.32 7.50657ZM18.9446 7.89057C19.9686 7.89057 20.7846 8.22657 21.3926 8.89857C22.0006 9.57057 22.3046 10.5146 22.3046 11.7306V16.8826H20.0646V11.9866C20.0646 11.2826 19.8833 10.7386 19.5206 10.3546C19.158 9.9599 18.662 9.76257 18.0326 9.76257C17.3926 9.76257 16.8806 9.97057 16.4966 10.3866C16.1126 10.8026 15.9206 11.3999 15.9206 12.1786V16.8826H13.6646V8.01857H15.9206V9.79457C16.1553 9.19723 16.5393 8.73323 17.0726 8.40257C17.6166 8.06123 18.2406 7.89057 18.9446 7.89057ZM26.5456 5.04257V16.8826H24.2896V5.04257H26.5456ZM28.3305 5.47457C28.3305 5.1119 28.4585 4.81857 28.7145 4.59457C28.9705 4.3599 29.3065 4.24257 29.7225 4.24257C30.1385 4.24257 30.4745 4.3599 30.7305 4.59457C30.9865 4.81857 31.1145 5.1119 31.1145 5.47457C31.1145 5.82657 30.9865 6.1199 30.7305 6.35457C30.4745 6.57857 30.1385 6.69057 29.7225 6.69057C29.3065 6.69057 28.9705 6.57857 28.7145 6.35457C28.4585 6.1199 28.3305 5.82657 28.3305 5.47457ZM30.8425 8.01857V16.8826H28.5865V8.01857H30.8425ZM38.1634 7.89057C39.1874 7.89057 40.0034 8.22657 40.6114 8.89857C41.2194 9.57057 41.5234 10.5146 41.5234 11.7306V16.8826H39.2834V11.9866C39.2834 11.2826 39.102 10.7386 38.7394 10.3546C38.3767 9.9599 37.8807 9.76257 37.2514 9.76257C36.6114 9.76257 36.0994 9.97057 35.7154 10.3866C35.3314 10.8026 35.1394 11.3999 35.1394 12.1786V16.8826H32.8834V8.01857H35.1394V9.79457C35.374 9.19723 35.758 8.73323 36.2914 8.40257C36.8354 8.06123 37.4594 7.89057 38.1634 7.89057ZM51.8444 12.1146C51.8444 12.3386 51.8177 12.5946 51.7644 12.8826H45.2684C45.3004 13.6719 45.5137 14.2532 45.9084 14.6266C46.303 14.9999 46.7937 15.1866 47.3804 15.1866C47.903 15.1866 48.335 15.0586 48.6764 14.8026C49.0284 14.5466 49.2524 14.1999 49.3484 13.7626H51.7324C51.615 14.3812 51.3644 14.9359 50.9804 15.4266C50.5964 15.9172 50.1004 16.3012 49.4924 16.5786C48.895 16.8559 48.2284 16.9946 47.4924 16.9946C46.6284 16.9946 45.8604 16.8132 45.1884 16.4506C44.5164 16.0772 43.9937 15.5492 43.6204 14.8666C43.247 14.1839 43.0604 13.3786 43.0604 12.4506C43.0604 11.5226 43.247 10.7172 43.6204 10.0346C43.9937 9.34123 44.5164 8.81323 45.1884 8.45057C45.8604 8.0879 46.6284 7.90657 47.4924 7.90657C48.367 7.90657 49.1297 8.0879 49.7804 8.45057C50.4417 8.81323 50.9484 9.31457 51.3004 9.95457C51.663 10.5839 51.8444 11.3039 51.8444 12.1146ZM49.5724 11.8906C49.6044 11.1652 49.4124 10.6159 48.9964 10.2426C48.591 9.86923 48.0897 9.68257 47.4924 9.68257C46.8844 9.68257 46.3724 9.86923 45.9564 10.2426C45.5404 10.6159 45.311 11.1652 45.2684 11.8906H49.5724ZM63.8103 14.6106H59.2823L58.4823 16.8826H56.0983L60.2583 5.71457H62.8343L66.9783 16.8826H64.5943L63.8103 14.6106ZM63.2023 12.8986L61.5383 8.13057L59.8743 12.8986H63.2023ZM73.4759 7.89057C74.4999 7.89057 75.3159 8.22657 75.9239 8.89857C76.5319 9.57057 76.8359 10.5146 76.8359 11.7306V16.8826H74.5959V11.9866C74.5959 11.2826 74.4145 10.7386 74.0519 10.3546C73.6892 9.9599 73.1932 9.76257 72.5639 9.76257C71.9239 9.76257 71.4119 9.97057 71.0279 10.3866C70.6439 10.8026 70.4519 11.3999 70.4519 12.1786V16.8826H68.1959V8.01857H70.4519V9.79457C70.6865 9.19723 71.0705 8.73323 71.6039 8.40257C72.1479 8.06123 72.7719 7.89057 73.4759 7.89057ZM82.2929 7.90657C83.0395 7.90657 83.6795 8.08257 84.2129 8.43457C84.7462 8.78657 85.1249 9.26123 85.3489 9.85857V8.01857H87.5889V16.8826H85.3489V15.0266C85.1249 15.6239 84.7462 16.1039 84.2129 16.4666C83.6795 16.8186 83.0395 16.9946 82.2929 16.9946C81.5462 16.9946 80.8742 16.8132 80.2769 16.4506C79.6795 16.0879 79.2102 15.5652 78.8689 14.8826C78.5382 14.1892 78.3729 13.3786 78.3729 12.4506C78.3729 11.5226 78.5382 10.7172 78.8689 10.0346C79.2102 9.34123 79.6795 8.81323 80.2769 8.45057C80.8742 8.0879 81.5462 7.90657 82.2929 7.90657ZM82.9969 9.87457C82.2929 9.87457 81.7275 10.1039 81.3009 10.5626C80.8742 11.0212 80.6609 11.6506 80.6609 12.4506C80.6609 13.2506 80.8742 13.8799 81.3009 14.3386C81.7275 14.7866 82.2929 15.0106 82.9969 15.0106C83.6795 15.0106 84.2395 14.7812 84.6769 14.3226C85.1249 13.8532 85.3489 13.2292 85.3489 12.4506C85.3489 11.6612 85.1249 11.0372 84.6769 10.5786C84.2395 10.1092 83.6795 9.87457 82.9969 9.87457ZM91.8894 5.04257V16.8826H89.6334V5.04257H91.8894ZM95.4503 8.01857L97.8663 14.0346L100.106 8.01857H102.586L97.1623 21.1066H94.6663L96.6663 16.6266L92.9383 8.01857H95.4503ZM106.705 7.90657C107.782 7.90657 108.646 8.17857 109.297 8.72257C109.948 9.26657 110.353 9.9919 110.513 10.8986H108.401C108.316 10.4719 108.124 10.1306 107.825 9.87457C107.526 9.61857 107.137 9.49057 106.657 9.49057C106.273 9.49057 105.974 9.58123 105.761 9.76257C105.548 9.9439 105.441 10.1892 105.441 10.4986C105.441 10.7439 105.526 10.9412 105.697 11.0906C105.868 11.2399 106.081 11.3572 106.337 11.4426C106.593 11.5279 106.961 11.6292 107.441 11.7466C108.113 11.8959 108.657 12.0559 109.073 12.2266C109.5 12.3866 109.862 12.6479 110.161 13.0106C110.47 13.3626 110.625 13.8426 110.625 14.4506C110.625 15.2079 110.326 15.8212 109.729 16.2906C109.142 16.7599 108.348 16.9946 107.345 16.9946C106.193 16.9946 105.27 16.7386 104.577 16.2266C103.884 15.7039 103.462 14.9626 103.313 14.0026H105.473C105.526 14.4399 105.718 14.7866 106.049 15.0426C106.38 15.2879 106.812 15.4106 107.345 15.4106C107.729 15.4106 108.022 15.3199 108.225 15.1386C108.428 14.9466 108.529 14.7012 108.529 14.4026C108.529 14.1466 108.438 13.9386 108.257 13.7786C108.086 13.6186 107.868 13.4959 107.601 13.4106C107.345 13.3252 106.977 13.2239 106.497 13.1066C105.836 12.9572 105.297 12.8079 104.881 12.6586C104.476 12.4986 104.124 12.2479 103.825 11.9066C103.537 11.5652 103.393 11.0959 103.393 10.4986C103.393 9.73057 103.686 9.10657 104.273 8.62657C104.86 8.14657 105.67 7.90657 106.705 7.90657ZM112.049 5.47457C112.049 5.1119 112.177 4.81857 112.433 4.59457C112.689 4.3599 113.025 4.24257 113.441 4.24257C113.857 4.24257 114.193 4.3599 114.449 4.59457C114.705 4.81857 114.833 5.1119 114.833 5.47457C114.833 5.82657 114.705 6.1199 114.449 6.35457C114.193 6.57857 113.857 6.69057 113.441 6.69057C113.025 6.69057 112.689 6.57857 112.433 6.35457C112.177 6.1199 112.049 5.82657 112.049 5.47457ZM114.561 8.01857V16.8826H112.305V8.01857H114.561ZM119.658 7.90657C120.735 7.90657 121.599 8.17857 122.25 8.72257C122.901 9.26657 123.306 9.9919 123.466 10.8986H121.354C121.269 10.4719 121.077 10.1306 120.778 9.87457C120.479 9.61857 120.09 9.49057 119.61 9.49057C119.226 9.49057 118.927 9.58123 118.714 9.76257C118.501 9.9439 118.394 10.1892 118.394 10.4986C118.394 10.7439 118.479 10.9412 118.65 11.0906C118.821 11.2399 119.034 11.3572 119.29 11.4426C119.546 11.5279 119.914 11.6292 120.394 11.7466C121.066 11.8959 121.61 12.0559 122.026 12.2266C122.453 12.3866 122.815 12.6479 123.114 13.0106C123.423 13.3626 123.578 13.8426 123.578 14.4506C123.578 15.2079 123.279 15.8212 122.682 16.2906C122.095 16.7599 121.301 16.9946 120.298 16.9946C119.146 16.9946 118.223 16.7386 117.53 16.2266C116.837 15.7039 116.415 14.9626 116.266 14.0026H118.426C118.479 14.4399 118.671 14.7866 119.002 15.0426C119.333 15.2879 119.765 15.4106 120.298 15.4106C120.682 15.4106 120.975 15.3199 121.178 15.1386C121.381 14.9466 121.482 14.7012 121.482 14.4026C121.482 14.1466 121.391 13.9386 121.21 13.7786C121.039 13.6186 120.821 13.4959 120.554 13.4106C120.298 13.3252 119.93 13.2239 119.45 13.1066C118.789 12.9572 118.25 12.8079 117.834 12.6586C117.429 12.4986 117.077 12.2479 116.778 11.9066C116.49 11.5652 116.346 11.0959 116.346 10.4986C116.346 9.73057 116.639 9.10657 117.226 8.62657C117.813 8.14657 118.623 7.90657 119.658 7.90657Z" fill="white"/>
<path d="M163.13 9.68257V8.83257H165.15V15.8826H164.19V9.68257H163.13ZM176.132 8.95257V15.8826H175.222V10.3526L173.012 15.8826H172.202L169.982 10.3726V15.8826H169.072V8.95257H170.162L172.622 14.7726L175.042 8.95257H176.132ZM180.077 10.3226C180.604 10.3226 181.074 10.4359 181.487 10.6626C181.907 10.8892 182.234 11.2159 182.467 11.6426C182.707 12.0692 182.827 12.5692 182.827 13.1426C182.827 13.7159 182.707 14.2159 182.467 14.6426C182.234 15.0626 181.907 15.3859 181.487 15.6126C181.074 15.8392 180.604 15.9526 180.077 15.9526C179.551 15.9526 179.077 15.8392 178.657 15.6126C178.244 15.3859 177.917 15.0626 177.677 14.6426C177.437 14.2159 177.317 13.7159 177.317 13.1426C177.317 12.5692 177.437 12.0692 177.677 11.6426C177.917 11.2159 178.244 10.8892 178.657 10.6626C179.077 10.4359 179.551 10.3226 180.077 10.3226ZM180.077 11.1226C179.751 11.1226 179.447 11.1959 179.167 11.3426C178.894 11.4892 178.671 11.7159 178.497 12.0226C178.331 12.3226 178.247 12.6959 178.247 13.1426C178.247 13.5826 178.331 13.9559 178.497 14.2626C178.671 14.5626 178.894 14.7859 179.167 14.9326C179.447 15.0792 179.751 15.1526 180.077 15.1526C180.404 15.1526 180.704 15.0792 180.977 14.9326C181.257 14.7859 181.481 14.5626 181.647 14.2626C181.821 13.9559 181.907 13.5826 181.907 13.1426C181.907 12.6959 181.821 12.3226 181.647 12.0226C181.481 11.7159 181.257 11.4892 180.977 11.3426C180.704 11.1959 180.404 11.1226 180.077 11.1226ZM186.903 10.3026C187.543 10.3026 188.06 10.5092 188.453 10.9226C188.847 11.3292 189.043 11.9192 189.043 12.6926V15.8826H188.133V12.7726C188.133 12.2259 187.993 11.8059 187.713 11.5126C187.433 11.2192 187.053 11.0726 186.573 11.0726C186.073 11.0726 185.673 11.2359 185.373 11.5626C185.073 11.8826 184.923 12.3526 184.923 12.9726V15.8826H184.013V10.3926H184.923V11.6926C185.063 11.2459 185.31 10.9026 185.663 10.6626C186.023 10.4226 186.437 10.3026 186.903 10.3026ZM193.059 15.0826V15.8826H192.379C191.819 15.8826 191.399 15.7492 191.119 15.4826C190.846 15.2159 190.709 14.7692 190.709 14.1426V11.1826H189.889V10.3926H190.709V9.02257H191.629V10.3926H193.049V11.1826H191.629V14.1626C191.629 14.5159 191.692 14.7592 191.819 14.8926C191.952 15.0192 192.179 15.0826 192.499 15.0826H193.059ZM197.059 10.3026C197.699 10.3026 198.216 10.5092 198.609 10.9226C199.003 11.3292 199.199 11.9192 199.199 12.6926V15.8826H198.289V12.7726C198.289 12.2259 198.149 11.8059 197.869 11.5126C197.589 11.2192 197.209 11.0726 196.729 11.0726C196.229 11.0726 195.829 11.2359 195.529 11.5626C195.229 11.8826 195.079 12.3526 195.079 12.9726V15.8826H194.169V8.48257H195.079V11.6926C195.219 11.2459 195.466 10.9026 195.819 10.6626C196.179 10.4226 196.593 10.3026 197.059 10.3026Z" fill="white"/>
<g clip-path="url(#clip0_228561_34)">
<path d="M206.083 11.7159L209 14.6326L211.917 11.7159H206.083Z" fill="white"/>
</g>
<defs>
<linearGradient id="paint0_linear_228561_34" x1="65" y1="188.383" x2="93" y2="188.383" gradientUnits="userSpaceOnUse">
<stop stop-color="#00F5A0"/>
<stop offset="1" stop-color="#00D9F5"/>
</linearGradient>
<linearGradient id="paint1_linear_228561_34" x1="0" y1="122.383" x2="215" y2="122.383" gradientUnits="userSpaceOnUse">
<stop stop-color="#00F5A0"/>
<stop offset="1" stop-color="#00D9F5"/>
</linearGradient>
<linearGradient id="paint2_linear_228561_34" x1="76" y1="136.883" x2="184" y2="136.883" gradientUnits="userSpaceOnUse">
<stop stop-color="#00F5A0"/>
<stop offset="1" stop-color="#00D9F5"/>
</linearGradient>
<clipPath id="clip0_228561_34">
<rect width="14" height="14" fill="white" transform="translate(202 5.88257)"/>
</clipPath>
</defs>
</svg>
