<svg xmlns="http://www.w3.org/2000/svg" xmlns:xlink="http://www.w3.org/1999/xlink" viewBox="0,0,256,256" width="48px" height="48px"><g fill="none" fill-rule="nonzero" stroke="none" stroke-width="1" stroke-linecap="butt" stroke-linejoin="miter" stroke-miterlimit="10" stroke-dasharray="" stroke-dashoffset="0" font-family="none" font-weight="none" font-size="none" text-anchor="none" style="mix-blend-mode: normal"><g transform="scale(5.33333,5.33333)"><path d="M3,6l21,36l21,-36z" fill-opacity="0.87843" fill="#44a5ff"></path><path d="M24,6v36l21,-36z" fill-opacity="0.85882" fill="#2496ff"></path><path d="M24,9l-8,13h16z" fill-opacity="0.78824" fill="#5fb3ff"></path><path d="M15.999,22l8,20l8,-20z" fill-opacity="0.85882" fill="#1d7ed5"></path><path d="M37,8l-5,14l7.881,-7.224l2.586,-4.433z" fill-opacity="0.8" fill="#187bc6"></path><path d="M31.999,22l-8,20l21.001,-36z" fill-opacity="0.83922" fill="#0e4f79"></path><path d="M5.533,10.343l2.586,4.434l7.881,7.223l-5,-14z" fill-opacity="0.83137" fill="#4d99f4"></path><path d="M24,42l-8,-20l-13,-16z" fill-opacity="0.8" fill="#2160af"></path><path d="M3,6l21,3l21,-3z" fill-opacity="0.8" fill="#2872d3"></path><path d="M24,6l7.132,1.981l13.868,-1.981z" fill-opacity="0.81176" fill="#d87a26"></path><path d="M24,6l7.132,1.981l13.868,-1.981z" fill-opacity="0.81961" fill="#175495"></path><path d="M3,6l13.868,1.981l7.132,-1.981z" fill-opacity="0.83137" fill="#2165ba"></path><path d="M31.132,7.981l10.001,2.778l3.867,-4.759z" fill-opacity="0.8" fill="#187bc6"></path><path d="M3,6l3.867,4.759l10.001,-2.778z" fill-opacity="0.83137" fill="#4d99f4"></path></g></g></svg>