<svg xmlns="http://www.w3.org/2000/svg" xmlns:xlink="http://www.w3.org/1999/xlink" viewBox="0,0,256,256" width="48px" height="48px"><g fill="none" fill-rule="nonzero" stroke="none" stroke-width="1" stroke-linecap="butt" stroke-linejoin="miter" stroke-miterlimit="10" stroke-dasharray="" stroke-dashoffset="0" font-family="none" font-weight="none" font-size="none" text-anchor="none" style="mix-blend-mode: normal"><g transform="scale(5.33333,5.33333)"><path d="M19.532,17.313l21.468,6.687l-21.468,-14.244z" fill-opacity="0.8902" fill="#004d40"></path><path d="M30.316,4h-18.698l-4.618,8h14z" fill-opacity="0.85098" fill="#26a69a"></path><path d="M41,24l-10.684,-20l-9.316,8z" fill-opacity="0.87059" fill="#00897b"></path><path d="M19.825,38.066l21.175,-14.066l-21.175,5.628z" fill-opacity="0.8902" fill="#004d40"></path><path d="M21,31.097l20,-7.097l-20.002,-7.076l-3.738,7.076z" fill-opacity="0.87059" fill="#00897b"></path><path d="M21,16.924l-3.906,-1.364l-9.038,8.44l9.038,8.461l3.906,-1.365zM21,36.021h-14l4.618,7.979h18.698l-9.302,-7.988z" fill-opacity="0.85098" fill="#26a69a"></path><path d="M7,12l11.184,3.94l2.816,-3.94z" fill-opacity="0.81961" fill="#00796b"></path><path d="M21.014,36.012l9.302,7.988l10.684,-20z" fill-opacity="0.87059" fill="#00897b"></path><path d="M21,36l-2.731,-3.949l-11.269,3.97h14z" fill-opacity="0.81961" fill="#00796b"></path><path d="M21,31.096l-3.906,1.365l3.906,3.539zM21,12l-3.906,3.56l3.906,1.364z" fill-opacity="0.87059" fill="#00695c"></path></g></g></svg>