<svg xmlns="http://www.w3.org/2000/svg" xmlns:xlink="http://www.w3.org/1999/xlink" viewBox="0,0,256,256" width="48px" height="48px"><g fill="none" fill-rule="nonzero" stroke="none" stroke-width="1" stroke-linecap="butt" stroke-linejoin="miter" stroke-miterlimit="10" stroke-dasharray="" stroke-dashoffset="0" font-family="none" font-weight="none" font-size="none" text-anchor="none" style="mix-blend-mode: normal"><g transform="scale(5.33333,5.33333)"><path d="M8.229,45.001c-0.287,0 -0.576,-0.039 -0.86,-0.118c-0.835,-0.231 -1.529,-0.779 -1.955,-1.541c-0.273,-0.491 -0.416,-1.048 -0.414,-1.611v-35.448c-0.021,-1.782 1.406,-3.261 3.182,-3.283c0.59,-0.013 1.139,0.142 1.632,0.425l31.747,18.079c1.363,0.786 1.839,2.541 1.067,3.913c-0.252,0.449 -0.62,0.821 -1.063,1.076c-0.001,0.001 -0.003,0.002 -0.005,0.003l-31.749,18.081c-0.49,0.28 -1.033,0.424 -1.582,0.424z" fill-opacity="0.94118" fill="#039be5"></path><path d="M5,22.1v19.632c-0.002,0.563 0.141,1.119 0.415,1.61c0.425,0.762 1.119,1.31 1.955,1.541c0.284,0.079 0.573,0.118 0.86,0.118c0.549,0 1.092,-0.144 1.582,-0.424l17.33,-9.869z" fill-opacity="0.90196" fill="#0277bd"></path><path d="M10,16.284v28.185l29.664,-16.893l-24.849,-14.15c-0.494,-0.283 -1.042,-0.438 -1.632,-0.425c-1.777,0.022 -3.204,1.501 -3.183,3.283z" fill-opacity="0.8902" fill="#29b6f6"></path><path d="M10,24.947v19.522l3.64,-2.073l13.501,-7.688z" fill-opacity="0.94118" fill="#039be5"></path><path d="M25.743,32.001c-0.148,0 -0.297,-0.02 -0.445,-0.059c-0.457,-0.123 -0.85,-0.437 -1.079,-0.859c-0.147,-0.271 -0.224,-0.581 -0.219,-0.893v-12.394c-0.01,-0.972 0.759,-1.782 1.714,-1.796c0.327,-0.004 0.641,0.083 0.918,0.255l10.573,6.321c0.758,0.463 1.016,1.437 0.594,2.222c-0.141,0.261 -0.345,0.477 -0.592,0.625c0,0 -0.001,0 -0.002,0.001l-10.585,6.329c-0.266,0.163 -0.568,0.248 -0.877,0.248z" fill-opacity="0.8902" fill="#29b6f6"></path><path d="M25.298,31.942c0.147,0.039 0.297,0.059 0.445,0.059c0.309,0 0.611,-0.085 0.877,-0.248l9.941,-5.944l-12.561,-7.153v11.534c-0.004,0.312 0.072,0.621 0.219,0.893c0.229,0.423 0.623,0.736 1.079,0.859z" fill-opacity="0.85882" fill="#81d4fa"></path></g></g></svg>