<svg xmlns="http://www.w3.org/2000/svg" xmlns:xlink="http://www.w3.org/1999/xlink" viewBox="0,0,256,256" width="48px" height="48px"><g fill="none" fill-rule="nonzero" stroke="none" stroke-width="1" stroke-linecap="butt" stroke-linejoin="miter" stroke-miterlimit="10" stroke-dasharray="" stroke-dashoffset="0" font-family="none" font-weight="none" font-size="none" text-anchor="none" style="mix-blend-mode: normal"><g transform="scale(5.33333,5.33333)"><path d="M44.945,21.453l-18.398,-18.398c-1.404,-1.404 -3.689,-1.404 -5.094,0l-18.398,18.398c-1.404,1.404 -1.404,3.689 0,5.094l18.398,18.398c0.702,0.702 1.625,1.053 2.547,1.053c0.922,0 1.845,-0.351 2.547,-1.053l18.398,-18.398c1.404,-1.404 1.404,-3.69 0,-5.094zM24,29l-5,-5l5,-5l5,5z" fill-opacity="0.78824" fill="#0c72b4"></path><path d="M33.246,9.754l-9.246,9.246l5,5l-5,5l9.246,9.246l11.699,-11.699c1.404,-1.404 1.404,-3.689 0,-5.094z" fill-opacity="0.76078" fill="#10a490"></path><path d="M14.754,38.246l6.699,6.699c0.702,0.702 1.625,1.053 2.547,1.053c0.922,0 1.845,-0.351 2.547,-1.053l6.699,-6.699l-9.246,-9.246z" fill-opacity="0.61176" fill="#29c7ff"></path></g></g></svg>