<svg xmlns="http://www.w3.org/2000/svg" xmlns:xlink="http://www.w3.org/1999/xlink" viewBox="0,0,256,256" width="48px" height="48px"><g fill="none" fill-rule="nonzero" stroke="none" stroke-width="1" stroke-linecap="butt" stroke-linejoin="miter" stroke-miterlimit="10" stroke-dasharray="" stroke-dashoffset="0" font-family="none" font-weight="none" font-size="none" text-anchor="none" style="mix-blend-mode: normal"><g transform="scale(5.33333,5.33333)"><path d="M24,18c-3.31371,0 -6,2.68629 -6,6c0,3.31371 2.68629,6 6,6c3.31371,0 6,-2.68629 6,-6c0,-3.31371 -2.68629,-6 -6,-6z" fill-opacity="0.76863" fill="#0c72b4"></path><path d="M39.878,13.582c1.967,2.993 3.122,6.569 3.122,10.418c0,10.494 -8.506,19 -19,19c-6.708,0 -12.087,-1.342 -15.728,-2.636c-3.386,-1.203 -5.272,-2.364 -5.272,-2.364l22,-6c0.139,0.007 0.361,-0.088 1,-0.252c3.45,-0.888 6,-4.02 6,-7.748c0,-3.17 -1.848,-5.9 -4.521,-7.195zM20.521,31.195c-2.673,-1.295 -4.521,-4.025 -4.521,-7.195c0,-3.728 2.549,-6.86 6,-7.748c0.639,-0.164 0.861,-0.259 1,-0.252l22,-6c0,0 -1.886,-1.161 -5.272,-2.364c-3.641,-1.294 -9.02,-2.636 -15.728,-2.636c-10.494,0 -19,8.506 -19,19c0,3.849 1.155,7.425 3.122,10.418z" fill-opacity="0.83137" fill="#10a490"></path></g></g></svg>